<?xml version="1.0" encoding="UTF-8" standalone="no"?>
<svg
   id="svg"
   version="1.1"
   width="400"
   height="400"
   viewBox="0, 0, 400,400"
   sodipodi:docname="helix2-logo.svg"
   inkscape:version="1.1-dev (b39e6d56, 2020-09-19)"
   inkscape:export-filename="/Users/avneetsingh/Documents/sshmatrix/buidl/helix-coupler/resources/helix2-logo.png"
   inkscape:export-xdpi="600"
   inkscape:export-ydpi="600"
   xmlns:inkscape="http://www.inkscape.org/namespaces/inkscape"
   xmlns:sodipodi="http://sodipodi.sourceforge.net/DTD/sodipodi-0.dtd"
   xmlns:xlink="http://www.w3.org/1999/xlink"
   xmlns="http://www.w3.org/2000/svg"
   xmlns:svg="http://www.w3.org/2000/svg">
  <defs
     id="defs1252">
    <linearGradient
       inkscape:collect="always"
       id="linearGradient1360">
      <stop
         style="stop-color:#0066ff;stop-opacity:0;"
         offset="0"
         id="stop1358" />
      <stop
         style="stop-color:#0066ff;stop-opacity:1;"
         offset="1"
         id="stop1356" />
    </linearGradient>
    <linearGradient
       inkscape:collect="always"
       id="linearGradient1315">
      <stop
         style="stop-color:#ff0000;stop-opacity:1;"
         offset="0"
         id="stop1311" />
      <stop
         style="stop-color:#ff0000;stop-opacity:0;"
         offset="1"
         id="stop1313" />
    </linearGradient>
    <radialGradient
       inkscape:collect="always"
       xlink:href="#linearGradient1315"
       id="radialGradient1317"
       cx="199.98096"
       cy="199.98512"
       fx="199.98096"
       fy="199.98512"
       r="22.185283"
       gradientTransform="matrix(1,0,0,3.7849253,0,-556.94362)"
       gradientUnits="userSpaceOnUse" />
    <radialGradient
       inkscape:collect="always"
       xlink:href="#linearGradient1360"
       id="radialGradient1362"
       cx="103.63842"
       cy="163.30902"
       fx="103.63842"
       fy="163.30902"
       r="22.185284"
       gradientTransform="matrix(1,0,0,3.7849252,96.34254,-418.1273)"
       gradientUnits="userSpaceOnUse" />
  </defs>
  <sodipodi:namedview
     pagecolor="#ffffff"
     bordercolor="#666666"
     borderopacity="1"
     objecttolerance="10"
     gridtolerance="10"
     guidetolerance="10"
     inkscape:pageopacity="0"
     inkscape:pageshadow="2"
     inkscape:window-width="1367"
     inkscape:window-height="805"
     id="namedview1250"
     showgrid="false"
     inkscape:zoom="1.5486757"
     inkscape:cx="257.96234"
     inkscape:cy="214.05385"
     inkscape:window-x="0"
     inkscape:window-y="25"
     inkscape:window-maximized="0"
     inkscape:current-layer="svgg" />
  <g
     id="svgg">
    <path
       id="path0-0"
       d="m 187.207,116.231 c -1.267,0.741 -1.776,1.845 -1.471,3.185 0.514,2.254 3.288,2.788 4.906,0.945 l 0.601,-0.685 5.697,0.134 c 6.54,0.153 6.785,0.18 7.336,0.814 0.225,0.258 0.519,0.469 0.654,0.467 1.137,-0.012 1.769,-0.85 1.246,-1.649 -0.423,-0.645 -1.204,-0.651 -2.066,-0.015 -0.359,0.265 -0.72,0.441 -0.801,0.39 -0.082,-0.051 -1.409,-0.223 -2.95,-0.383 -8.841,-0.918 -9.24,-0.996 -9.407,-1.832 -0.225,-1.125 -2.649,-2.012 -3.745,-1.371 m -5.176,6.058 c -0.888,0.536 -0.798,0.409 -1.094,1.549 -0.757,2.917 3.245,4.65 4.692,2.031 0.116,-0.209 0.238,-0.422 0.271,-0.473 0.033,-0.051 5.175,-0.082 11.426,-0.068 8.119,0.017 10.584,-0.024 8.631,-0.144 -1.504,-0.093 -4.097,-0.267 -5.762,-0.387 -1.665,-0.12 -5.503,-0.377 -8.529,-0.572 -5.786,-0.372 -5.924,-0.395 -5.924,-0.987 0,-1.103 -2.427,-1.724 -3.711,-0.949 m 27.686,1.75 c -1.393,0.811 -0.794,2.908 0.83,2.908 0.792,0 1.029,-0.126 1.338,-0.713 0.76,-1.445 -0.779,-3.004 -2.168,-2.195 m -30.564,5.157 c -1.569,0.682 -1.79,3.184 -0.368,4.159 1.079,0.739 2.214,0.607 3.347,-0.391 l 0.937,-0.825 5.194,-0.135 c 2.857,-0.074 8.446,-0.198 12.421,-0.275 12.33,-0.238 13.44,-0.369 4.589,-0.539 -4.243,-0.082 -11.01,-0.234 -15.039,-0.338 l -7.324,-0.188 -0.586,-0.674 c -0.922,-1.062 -1.958,-1.321 -3.171,-0.794 m 35.612,0.256 c -0.444,0.096 -0.957,0.564 -1.262,1.15 -0.99,1.904 1.57,3.713 3.075,2.173 1.373,-1.404 0.1,-3.738 -1.813,-3.323 m 3.373,6.549 c -0.391,0.126 -0.941,0.506 -1.222,0.845 -0.619,0.744 1.305,0.598 -17.697,1.346 -4.243,0.167 -9.517,0.374 -11.719,0.46 -2.888,0.112 0.578,0.164 12.434,0.185 l 16.438,0.03 0.472,0.561 c 1.583,1.882 4.055,1.046 4.054,-1.372 0,-0.962 -0.657,-1.923 -1.35,-1.976 -0.224,-0.017 -0.407,-0.1 -0.407,-0.184 0,-0.192 -0.12,-0.18 -1.003,0.105 m -38.925,0.849 c -1.105,0.311 -1.694,2.321 -0.978,3.342 0.993,1.419 3.286,1.235 3.934,-0.316 0.782,-1.873 -0.907,-3.602 -2.956,-3.026 m 39.541,6.532 c -0.647,0.258 -1.183,0.759 -1.389,1.296 -0.164,0.429 -0.239,0.439 -3.151,0.442 -1.641,0.001 -6.016,0.128 -9.722,0.282 -3.706,0.154 -9.243,0.349 -12.304,0.433 -8.455,0.234 -4.869,0.398 9.96,0.458 15.097,0.06 15.099,0.06 15.421,0.663 0.765,1.429 3.181,1.53 4.111,0.172 1.445,-2.11 -0.568,-4.687 -2.926,-3.746 m -37.016,0.985 c -1.205,0.663 -1.448,2.164 -0.503,3.109 1.546,1.546 4.107,-0.268 3.117,-2.208 -0.525,-1.03 -1.665,-1.422 -2.614,-0.901 m 33.858,6.269 c -0.285,0.241 -0.669,0.68 -0.853,0.975 -0.333,0.535 -0.347,0.537 -2.51,0.533 -2.7,-0.005 -23.571,0.451 -23.508,0.514 0.026,0.025 3.518,0.145 7.76,0.266 20.27,0.581 18.489,0.44 18.554,1.471 0.087,1.372 3.304,1.311 4.242,-0.081 1.63,-2.419 -1.493,-5.536 -3.685,-3.678 m -29.809,0.471 c -0.319,0.128 -0.826,1.106 -0.826,1.591 0,1.593 2.311,1.948 3.099,0.476 0.641,-1.198 -0.916,-2.613 -2.273,-2.067 m 25.351,4.97 c -0.562,0.224 -0.969,0.642 -1.357,1.394 l -0.277,0.537 -2.652,0.015 c -1.459,0.008 -2.791,0.042 -2.961,0.075 -0.17,0.033 -2.784,0.126 -5.811,0.205 -5.642,0.149 -5.63,0.15 -5.527,-0.534 0.041,-0.271 -1.233,-0.484 -1.689,-0.282 -0.906,0.402 -0.71,1.948 0.272,2.135 0.561,0.108 1.519,-0.355 1.34,-0.645 -0.388,-0.628 16.614,0 17.094,0.63 1.058,1.39 1.287,1.565 2.192,1.667 2.01,0.226 3.278,-0.825 3.276,-2.716 -0.001,-1.968 -2,-3.239 -3.9,-2.481 m -5.918,4.95 c -0.679,0.354 -0.945,0.634 -1.307,1.375 -0.158,0.323 -0.303,0.614 -0.323,0.649 -0.043,0.074 -5.478,0.813 -5.994,0.815 -0.194,10e-4 -0.305,-0.077 -0.246,-0.172 0.059,-0.096 -0.156,-0.212 -0.477,-0.259 -0.544,-0.08 -0.584,-0.044 -0.584,0.537 0,0.617 0.757,0.799 1.089,0.262 0.239,-0.387 6.333,-0.083 6.333,0.316 0,0.433 1.326,1.604 1.96,1.731 2.173,0.434 3.618,-0.717 3.59,-2.858 -0.027,-2.002 -2.259,-3.325 -4.041,-2.396 m -6.392,4.647 c -2.458,1.677 -1.317,5.224 1.681,5.224 1.35,0 2.486,-0.964 2.708,-2.3 0.4,-2.398 -2.413,-4.273 -4.389,-2.924 m -5.762,4.425 c -1.479,0.688 -2.04,2.229 -1.378,3.784 0.774,1.817 3.673,2.084 4.873,0.448 0.44,-0.599 2.184,-0.753 2.392,-0.21 0.23,0.601 1.047,0.353 1.047,-0.318 0,-0.606 -0.007,-0.61 -0.8,-0.483 -1.365,0.218 -2.13,-0.023 -2.13,-0.673 0,-2.157 -2.045,-3.459 -4.004,-2.548 m -5.768,4.855 c -2.896,1.386 -1.743,5.575 1.45,5.268 0.863,-0.083 1.082,-0.2 1.725,-0.925 l 0.737,-0.831 6.299,0.109 c 6.758,0.117 6.75,0.11 -0.732,-0.754 -5.904,-0.681 -5.536,-0.591 -5.878,-1.429 -0.497,-1.215 -2.443,-1.992 -3.601,-1.438 m 17.343,2.795 c -0.879,0.512 -0.804,1.737 0.132,2.164 1.171,0.533 2.107,-1.325 1.043,-2.07 -0.502,-0.351 -0.706,-0.368 -1.175,-0.094 m -22.63,3.358 c -1.383,0.924 -1.645,2.477 -0.642,3.799 1.039,1.368 3.044,1.3 4.204,-0.143 l 0.619,-0.771 10.762,0.088 c 5.918,0.048 10.629,0.05 10.468,0.005 -0.161,-0.045 -1.831,-0.178 -3.711,-0.296 -1.88,-0.118 -3.945,-0.255 -4.59,-0.303 -0.644,-0.049 -3.413,-0.22 -6.152,-0.38 -6.151,-0.361 -7.03,-0.454 -7.038,-0.747 -0.038,-1.335 -2.58,-2.147 -3.92,-1.252 m 27.706,1.711 c -1.386,0.848 -0.866,2.924 0.732,2.924 1.056,0 1.653,-0.537 1.657,-1.492 0.006,-1.153 -1.434,-2.016 -2.389,-1.432 m -30.42,5.019 c -1.327,0.503 -1.968,2.676 -1.114,3.774 1.153,1.481 3.837,1.166 4.452,-0.523 0.057,-0.157 3.457,-0.284 11.799,-0.441 6.445,-0.121 13.256,-0.283 15.136,-0.36 l 3.418,-0.14 -6.152,-0.134 c -3.384,-0.074 -10.151,-0.228 -15.039,-0.343 l -8.887,-0.209 -0.586,-0.666 c -0.896,-1.019 -1.97,-1.358 -3.027,-0.958 m 35.254,0.53 c -1.65,0.576 -1.645,3.082 0.007,3.627 1.864,0.616 3.311,-1.228 2.304,-2.935 -0.4,-0.676 -1.453,-0.991 -2.311,-0.692 m 2.536,7.136 -0.778,0.777 -9.766,0.392 c -5.371,0.215 -12.051,0.485 -14.844,0.598 -2.793,0.113 -5.693,0.229 -6.445,0.258 -0.752,0.028 5.944,0.069 14.88,0.09 l 16.248,0.038 0.649,0.689 c 1.232,1.305 3.133,1.041 3.758,-0.522 0.962,-2.403 -1.852,-4.166 -3.702,-2.32 m -38.367,0.554 c -1.504,1.374 -0.855,3.619 1.123,3.884 1.019,0.137 1.854,-0.351 2.302,-1.343 0.965,-2.142 -1.698,-4.118 -3.425,-2.541 m 39.684,6.276 c -0.351,0.22 -0.735,0.613 -0.854,0.873 -0.282,0.619 -1.926,0.709 -25.655,1.407 -7.995,0.235 -5.305,0.398 7.307,0.443 15.9,0.057 18.013,0.119 18.247,0.537 1.123,2.008 4.037,1.654 4.634,-0.564 0.562,-2.086 -1.843,-3.849 -3.679,-2.696 m -36.807,0.891 c -1.708,0.96 -0.978,3.612 0.994,3.612 2.415,0 2.693,-3.557 0.299,-3.826 -0.469,-0.053 -0.966,0.029 -1.293,0.214 m 34.321,5.983 c -0.398,0.239 -0.822,0.679 -1.172,1.216 -0.168,0.258 -1.771,0.347 -11.328,0.627 -6.123,0.179 -11.206,0.393 -11.295,0.474 -0.09,0.082 2.986,0.204 6.836,0.271 3.849,0.067 8.932,0.175 11.295,0.239 l 4.297,0.118 0.293,0.612 c 1.476,3.082 6.053,0.821 4.716,-2.33 -0.489,-1.151 -2.587,-1.858 -3.642,-1.227 m -30.032,0.694 c -0.399,0.104 -0.925,1.026 -0.925,1.622 0,1.128 2.002,1.821 2.754,0.954 1.21,-1.395 0.027,-3.06 -1.829,-2.576 m 24.903,5.274 c -0.447,0.29 -0.91,0.763 -1.029,1.05001 l -0.217,0.523 -5.016,0.148 c -2.758,0.081 -6.334,0.204 -7.945,0.273 l -2.93,0.126 1.758,0.141 c 0.967,0.077 4.263,0.231 7.324,0.342 6.864,0.248 6.702,0.224 7.197,1.063 1.419,2.404 5.11,1.333 5.107,-1.481 -0.002,-2.23601 -2.327,-3.43101 -4.249,-2.18501 m -19.921,1.05701 c -0.863,0.319 -0.719,1.768 0.209,2.112 0.529,0.196 1.259,-0.114 1.413,-0.6 0.063,-0.199 0.262,-0.367 0.443,-0.374 0.23,-0.008 0.193,-0.066 -0.123,-0.193 -0.249,-0.1 -0.404,-0.26 -0.344,-0.356 0.254,-0.411 -0.916,-0.84201 -1.598,-0.589 m 14.326,3.598 c -0.631,0.329 -0.939,0.681 -1.374,1.576 -0.322,0.661 0.01,0.588 -4.504,0.993 -1.978,0.178 -1.696,0.45 0.498,0.483 1.123,0.016 2.261,0.05 2.53,0.075 0.268,0.026 0.67,0.056 0.892,0.068 0.253,0.014 0.562,0.305 0.83,0.781 1.483,2.64 5.649,1.199 5.245,-1.814 -0.255,-1.902 -2.428,-3.043 -4.117,-2.162 m -8.948,2.836 c -0.082,0.561 -0.053,0.593 0.497,0.537 0.95,-0.095 0.868,-1.121 -0.09,-1.13 -0.208,-0.002 -0.35,0.205 -0.407,0.593 m 2.562,1.804 c -2.402,1.617 -1.289,5.219 1.612,5.217 2.174,-0.002 3.476,-2.266 2.442,-4.246 -0.687,-1.313 -2.795,-1.818 -4.054,-0.971 m -5.886,4.438 c -2.585,1.403 -1.607,5.364 1.313,5.32 1.066,-0.016 1.967,-0.485 2.349,-1.223 0.393,-0.761 2.118,-0.893 2.305,-0.177 0.17,0.65 0.996,0.43 1.078,-0.287 0.063,-0.556 0.052,-0.563 -0.711,-0.441 -1.023,0.164 -2.186,-0.3 -2.186,-0.872 0,-1.917 -2.409,-3.265 -4.148,-2.32 m -5.972,5.082 c -1.368,0.834 -1.717,2.875 -0.699,4.085 1.207,1.434 3.826,1.23 4.563,-0.355 l 0.216,-0.464 6.291,0.118 c 3.461,0.066 6.204,0.082 6.097,0.037 -0.107,-0.045 -1.074,-0.173 -2.148,-0.284 -3.004,-0.311 -8.721,-0.974 -9.376,-1.088 -0.448,-0.077 -0.694,-0.305 -1.046,-0.968 -0.757,-1.428 -2.525,-1.918 -3.898,-1.081 m 17.61,2.568 c -0.952,0.46 -0.597,1.974 0.487,2.078 0.831,0.081 1.203,-0.244 1.203,-1.051 0,-0.987 -0.786,-1.465 -1.69,-1.027 m -22.466,3.21 c -1.365,0.674 -1.696,2.974 -0.586,4.084 1.204,1.204 2.68,1.145 3.916,-0.155 l 0.766,-0.805 11.153,0.018 c 6.134,0.01 10.933,-0.016 10.665,-0.057 -0.269,-0.041 -2.73,-0.206 -5.469,-0.365 -18.04,-1.051 -16.492,-0.89 -16.906,-1.762 -0.548,-1.154 -2.222,-1.608 -3.539,-0.958 m 27.623,1.849 c -1.614,0.94 -0.322,3.61 1.382,2.857 0.718,-0.317 0.999,-0.718 0.99,-1.408 -0.006,-0.526 -0.323,-1.597 -0.357,-1.206 -0.007,0.088 -0.151,0.022 -0.32,-0.147 -0.347,-0.347 -1.183,-0.394 -1.695,-0.096 m -30.42,5.005 c -1.689,0.618 -2.006,3.287 -0.512,4.311 1.122,0.768 2.357,0.617 3.341,-0.41 l 0.809,-0.845 11.218,-0.254 c 6.17,-0.14 12.932,-0.317 15.027,-0.393 l 3.808,-0.139 -4.345,-0.056 c -2.391,-0.031 -4.412,-0.073 -4.493,-0.092 -0.08,-0.019 -3.794,-0.107 -8.252,-0.195 -4.458,-0.088 -8.325,-0.186 -8.593,-0.217 -0.269,-0.032 -1.414,-0.065 -2.546,-0.074 l -2.058,-0.016 -0.346,-0.587 c -0.566,-0.958 -1.968,-1.431 -3.058,-1.033 m 34.63,0.888 c -1.681,1.851 0.606,4.582 2.534,3.026 0.887,-0.716 0.902,-3.075 0.019,-3.075 -0.148,0 -0.269,-0.088 -0.269,-0.195 0,-0.418 -1.865,-0.218 -2.284,0.244 m 3.224,6.777 -0.802,0.803 -12.227,0.482 c -21.431,0.847 -21.272,0.812 -3.837,0.844 l 16.007,0.029 0.723,0.706 c 1.561,1.524 3.937,0.759 3.937,-1.268 0,-2.232 -2.229,-3.168 -3.801,-1.596 m -37.974,0.201 c -0.677,0.274 -1.248,1.161 -1.245,1.935 0.004,0.919 0.188,1.585 0.438,1.585 0.11,0 0.301,0.137 0.424,0.306 0.388,0.53 1.745,0.584 2.528,0.1 2.333,-1.441 0.411,-4.958 -2.145,-3.926 m 39.244,6.635 c -0.343,0.209 -0.728,0.582 -0.857,0.829 -0.129,0.248 -0.27,0.491 -0.314,0.54 -0.078,0.089 -5.902,0.3 -22.426,0.815 -10.775,0.336 -9.55,0.497 4.199,0.555 17.702,0.073 18.148,0.088 18.52,0.629 1.189,1.728 3.566,1.641 4.362,-0.158 1.017,-2.298 -1.371,-4.498 -3.484,-3.21 m -36.683,0.822 c -1.802,0.991 -1.19,3.68 0.838,3.68 1.45,0 2.274,-1.196 1.805,-2.618 -0.336,-1.018 -1.715,-1.572 -2.643,-1.062 m 33.931,6.22 c -0.352,0.214 -0.72,0.601 -0.818,0.859 -0.26,0.685 0.162,0.646 -8.699,0.802 -4.511,0.08 -10.268,0.202 -12.793,0.272 l -4.589,0.127 3.808,0.141 c 2.095,0.077 7.105,0.232 11.133,0.342 10.789,0.297 10.931,0.309 11.152,0.944 0.864,2.478 4.884,1.386 4.85,-1.317 -0.011,-0.89 -0.313,-2.314 -0.363,-1.714 -0.008,0.09 -0.284,-0.064 -0.615,-0.342 -0.763,-0.642 -2.118,-0.692 -3.066,-0.114 m -29.999,0.829 c -1.202,1.09 -0.594,2.686 1.024,2.686 0.674,0 0.829,-0.089 1.196,-0.683 0.998,-1.615 -0.83,-3.263 -2.22,-2.003 m 25.375,4.771 c -0.636,0.344 -1.263,1.014 -1.273,1.36 -0.011,0.37 -0.684,0.437 -5.67,0.564 -10.204,0.258 -11.402,0.237 -11.626,-0.201 -0.234,-0.458 -1.341,-0.635 -1.766,-0.282 -0.328,0.272 -0.366,1.027 -0.078,1.565 0.345,0.644 1.946,0.328 1.946,-0.386 0,-0.251 2.053,-0.203 11.612,0.273 l 5.069,0.253 0.693,0.778 c 1.56,1.752 3.632,1.746 4.704,-0.013 1.429,-2.343 -1.216,-5.208 -3.611,-3.911 m -6.461,5.456 c -0.488,0.525 -1.048,1.144 -1.244,1.375 -0.336,0.395 -5.039,0.93 -5.781,0.658 -0.733,-0.269 -1.366,-0.088 -1.315,0.375 0.072,0.64 0.097,0.65 0.748,0.301 0.455,-0.244 1.143,-0.294 3.477,-0.253 3.094,0.055 3.129,0.065 3.752,1.12 0.909,1.538 3.479,1.545 4.57,0.013 1.375,-1.931 0.244,-4.176 -2.231,-4.432 l -1.088,-0.112 -0.888,0.955"
       stroke="none"
       fill="#000000"
       fill-rule="evenodd"
       sodipodi:nodetypes="ccccccccccccccccsccscsccscccccccccccccccccccsccccccsccccccccscccsccsccccscccsccsccccccscccccccccccccccscsccccsccccccscsccssccccccccccccccsscccccsccccccscccccccccccccsccccccccccccccccccsccccccsccccccssccccccccccccccscccccccccccscccscccccccccccsccccccsccccccsccscccccccccccsccccccccccscccccccsscccccccscccsccccccccccccscccccccccccccccsccccccccscccccccccscccccc"
       style="fill:url(#radialGradient1362);fill-opacity:1;stroke:none;opacity:0.46945338" />
    <path
       id="path0"
       d="m 187.207,116.231 c -1.267,0.741 -1.776,1.845 -1.471,3.185 0.514,2.254 3.288,2.788 4.906,0.945 l 0.601,-0.685 5.697,0.134 c 6.54,0.153 6.785,0.18 7.336,0.814 0.225,0.258 0.519,0.469 0.654,0.467 1.137,-0.012 1.769,-0.85 1.246,-1.649 -0.423,-0.645 -1.204,-0.651 -2.066,-0.015 -0.359,0.265 -0.72,0.441 -0.801,0.39 -0.082,-0.051 -1.409,-0.223 -2.95,-0.383 -8.841,-0.918 -9.24,-0.996 -9.407,-1.832 -0.225,-1.125 -2.649,-2.012 -3.745,-1.371 m -5.176,6.058 c -0.888,0.536 -0.798,0.409 -1.094,1.549 -0.757,2.917 3.245,4.65 4.692,2.031 0.116,-0.209 0.238,-0.422 0.271,-0.473 0.033,-0.051 5.175,-0.082 11.426,-0.068 8.119,0.017 10.584,-0.024 8.631,-0.144 -1.504,-0.093 -4.097,-0.267 -5.762,-0.387 -1.665,-0.12 -5.503,-0.377 -8.529,-0.572 -5.786,-0.372 -5.924,-0.395 -5.924,-0.987 0,-1.103 -2.427,-1.724 -3.711,-0.949 m 27.686,1.75 c -1.393,0.811 -0.794,2.908 0.83,2.908 0.792,0 1.029,-0.126 1.338,-0.713 0.76,-1.445 -0.779,-3.004 -2.168,-2.195 m -30.564,5.157 c -1.569,0.682 -1.79,3.184 -0.368,4.159 1.079,0.739 2.214,0.607 3.347,-0.391 l 0.937,-0.825 5.194,-0.135 c 2.857,-0.074 8.446,-0.198 12.421,-0.275 12.33,-0.238 13.44,-0.369 4.589,-0.539 -4.243,-0.082 -11.01,-0.234 -15.039,-0.338 l -7.324,-0.188 -0.586,-0.674 c -0.922,-1.062 -1.958,-1.321 -3.171,-0.794 m 35.612,0.256 c -0.444,0.096 -0.957,0.564 -1.262,1.15 -0.99,1.904 1.57,3.713 3.075,2.173 1.373,-1.404 0.1,-3.738 -1.813,-3.323 m 3.373,6.549 c -0.391,0.126 -0.941,0.506 -1.222,0.845 -0.619,0.744 1.305,0.598 -17.697,1.346 -4.243,0.167 -9.517,0.374 -11.719,0.46 -2.888,0.112 0.578,0.164 12.434,0.185 l 16.438,0.03 0.472,0.561 c 1.583,1.882 4.055,1.046 4.054,-1.372 0,-0.962 -0.657,-1.923 -1.35,-1.976 -0.224,-0.017 -0.407,-0.1 -0.407,-0.184 0,-0.192 -0.12,-0.18 -1.003,0.105 m -38.925,0.849 c -1.105,0.311 -1.694,2.321 -0.978,3.342 0.993,1.419 3.286,1.235 3.934,-0.316 0.782,-1.873 -0.907,-3.602 -2.956,-3.026 m 39.541,6.532 c -0.647,0.258 -1.183,0.759 -1.389,1.296 -0.164,0.429 -0.239,0.439 -3.151,0.442 -1.641,0.001 -6.016,0.128 -9.722,0.282 -3.706,0.154 -9.243,0.349 -12.304,0.433 -8.455,0.234 -4.869,0.398 9.96,0.458 15.097,0.06 15.099,0.06 15.421,0.663 0.765,1.429 3.181,1.53 4.111,0.172 1.445,-2.11 -0.568,-4.687 -2.926,-3.746 m -37.016,0.985 c -1.205,0.663 -1.448,2.164 -0.503,3.109 1.546,1.546 4.107,-0.268 3.117,-2.208 -0.525,-1.03 -1.665,-1.422 -2.614,-0.901 m 33.858,6.269 c -0.285,0.241 -0.669,0.68 -0.853,0.975 -0.333,0.535 -0.347,0.537 -2.51,0.533 -2.7,-0.005 -23.571,0.451 -23.508,0.514 0.026,0.025 3.518,0.145 7.76,0.266 20.27,0.581 18.489,0.44 18.554,1.471 0.087,1.372 3.304,1.311 4.242,-0.081 1.63,-2.419 -1.493,-5.536 -3.685,-3.678 m -29.809,0.471 c -0.319,0.128 -0.826,1.106 -0.826,1.591 0,1.593 2.311,1.948 3.099,0.476 0.641,-1.198 -0.916,-2.613 -2.273,-2.067 m 25.351,4.97 c -0.562,0.224 -0.969,0.642 -1.357,1.394 l -0.277,0.537 -2.652,0.015 c -1.459,0.008 -2.791,0.042 -2.961,0.075 -0.17,0.033 -2.784,0.126 -5.811,0.205 -5.642,0.149 -5.63,0.15 -5.527,-0.534 0.041,-0.271 -1.233,-0.484 -1.689,-0.282 -0.906,0.402 -0.71,1.948 0.272,2.135 0.561,0.108 1.519,-0.355 1.34,-0.645 -0.388,-0.628 16.614,0 17.094,0.63 1.058,1.39 1.287,1.565 2.192,1.667 2.01,0.226 3.278,-0.825 3.276,-2.716 -0.001,-1.968 -2,-3.239 -3.9,-2.481 m -5.918,4.95 c -0.679,0.354 -0.945,0.634 -1.307,1.375 -0.158,0.323 -0.303,0.614 -0.323,0.649 -0.043,0.074 -5.478,0.813 -5.994,0.815 -0.194,10e-4 -0.305,-0.077 -0.246,-0.172 0.059,-0.096 -0.156,-0.212 -0.477,-0.259 -0.544,-0.08 -0.584,-0.044 -0.584,0.537 0,0.617 0.757,0.799 1.089,0.262 0.239,-0.387 6.333,-0.083 6.333,0.316 0,0.433 1.326,1.604 1.96,1.731 2.173,0.434 3.618,-0.717 3.59,-2.858 -0.027,-2.002 -2.259,-3.325 -4.041,-2.396 m -6.392,4.647 c -2.458,1.677 -1.317,5.224 1.681,5.224 1.35,0 2.486,-0.964 2.708,-2.3 0.4,-2.398 -2.413,-4.273 -4.389,-2.924 m -5.762,4.425 c -1.479,0.688 -2.04,2.229 -1.378,3.784 0.774,1.817 3.673,2.084 4.873,0.448 0.44,-0.599 2.184,-0.753 2.392,-0.21 0.23,0.601 1.047,0.353 1.047,-0.318 0,-0.606 -0.007,-0.61 -0.8,-0.483 -1.365,0.218 -2.13,-0.023 -2.13,-0.673 0,-2.157 -2.045,-3.459 -4.004,-2.548 m -5.768,4.855 c -2.896,1.386 -1.743,5.575 1.45,5.268 0.863,-0.083 1.082,-0.2 1.725,-0.925 l 0.737,-0.831 6.299,0.109 c 6.758,0.117 6.75,0.11 -0.732,-0.754 -5.904,-0.681 -5.536,-0.591 -5.878,-1.429 -0.497,-1.215 -2.443,-1.992 -3.601,-1.438 m 17.343,2.795 c -0.879,0.512 -0.804,1.737 0.132,2.164 1.171,0.533 2.107,-1.325 1.043,-2.07 -0.502,-0.351 -0.706,-0.368 -1.175,-0.094 m -22.63,3.358 c -1.383,0.924 -1.645,2.477 -0.642,3.799 1.039,1.368 3.044,1.3 4.204,-0.143 l 0.619,-0.771 10.762,0.088 c 5.918,0.048 10.629,0.05 10.468,0.005 -0.161,-0.045 -1.831,-0.178 -3.711,-0.296 -1.88,-0.118 -3.945,-0.255 -4.59,-0.303 -0.644,-0.049 -3.413,-0.22 -6.152,-0.38 -6.151,-0.361 -7.03,-0.454 -7.038,-0.747 -0.038,-1.335 -2.58,-2.147 -3.92,-1.252 m 27.706,1.711 c -1.386,0.848 -0.866,2.924 0.732,2.924 1.056,0 1.653,-0.537 1.657,-1.492 0.006,-1.153 -1.434,-2.016 -2.389,-1.432 m -30.42,5.019 c -1.327,0.503 -1.968,2.676 -1.114,3.774 1.153,1.481 3.837,1.166 4.452,-0.523 0.057,-0.157 3.457,-0.284 11.799,-0.441 6.445,-0.121 13.256,-0.283 15.136,-0.36 l 3.418,-0.14 -6.152,-0.134 c -3.384,-0.074 -10.151,-0.228 -15.039,-0.343 l -8.887,-0.209 -0.586,-0.666 c -0.896,-1.019 -1.97,-1.358 -3.027,-0.958 m 35.254,0.53 c -1.65,0.576 -1.645,3.082 0.007,3.627 1.864,0.616 3.311,-1.228 2.304,-2.935 -0.4,-0.676 -1.453,-0.991 -2.311,-0.692 m 2.536,7.136 -0.778,0.777 -9.766,0.392 c -5.371,0.215 -12.051,0.485 -14.844,0.598 -2.793,0.113 -5.693,0.229 -6.445,0.258 -0.752,0.028 5.944,0.069 14.88,0.09 l 16.248,0.038 0.649,0.689 c 1.232,1.305 3.133,1.041 3.758,-0.522 0.962,-2.403 -1.852,-4.166 -3.702,-2.32 m -38.367,0.554 c -1.504,1.374 -0.855,3.619 1.123,3.884 1.019,0.137 1.854,-0.351 2.302,-1.343 0.965,-2.142 -1.698,-4.118 -3.425,-2.541 m 39.684,6.276 c -0.351,0.22 -0.735,0.613 -0.854,0.873 -0.282,0.619 -1.926,0.709 -25.655,1.407 -7.995,0.235 -5.305,0.398 7.307,0.443 15.9,0.057 18.013,0.119 18.247,0.537 1.123,2.008 4.037,1.654 4.634,-0.564 0.562,-2.086 -1.843,-3.849 -3.679,-2.696 m -36.807,0.891 c -1.708,0.96 -0.978,3.612 0.994,3.612 2.415,0 2.693,-3.557 0.299,-3.826 -0.469,-0.053 -0.966,0.029 -1.293,0.214 m 34.321,5.983 c -0.398,0.239 -0.822,0.679 -1.172,1.216 -0.168,0.258 -1.771,0.347 -11.328,0.627 -6.123,0.179 -11.206,0.393 -11.295,0.474 -0.09,0.082 2.986,0.204 6.836,0.271 3.849,0.067 8.932,0.175 11.295,0.239 l 4.297,0.118 0.293,0.612 c 1.476,3.082 6.053,0.821 4.716,-2.33 -0.489,-1.151 -2.587,-1.858 -3.642,-1.227 m -30.032,0.694 c -0.399,0.104 -0.925,1.026 -0.925,1.622 0,1.128 2.002,1.821 2.754,0.954 1.21,-1.395 0.027,-3.06 -1.829,-2.576 m 24.903,5.274 c -0.447,0.29 -0.91,0.763 -1.029,1.05 l -0.217,0.523 -5.016,0.148 c -2.758,0.081 -6.334,0.204 -7.945,0.273 l -2.93,0.126 1.758,0.141 c 0.967,0.077 4.263,0.231 7.324,0.342 6.864,0.248 6.702,0.224 7.197,1.063 1.419,2.404 5.11,1.333 5.107,-1.481 -0.002,-2.236 -2.327,-3.431 -4.249,-2.185 m -19.921,1.057 c -0.863,0.319 -0.719,1.768 0.209,2.112 0.529,0.196 1.259,-0.114 1.413,-0.6 0.063,-0.199 0.262,-0.367 0.443,-0.374 0.23,-0.008 0.193,-0.066 -0.123,-0.193 -0.249,-0.1 -0.404,-0.26 -0.344,-0.356 0.254,-0.411 -0.916,-0.842 -1.598,-0.589 m 14.326,3.598 c -0.631,0.329 -0.939,0.681 -1.374,1.576 -0.322,0.661 0.01,0.588 -4.504,0.993 -1.978,0.178 -1.696,0.45 0.498,0.483 1.123,0.016 2.261,0.05 2.53,0.075 0.268,0.026 0.67,0.056 0.892,0.068 0.253,0.014 0.562,0.305 0.83,0.781 1.483,2.64 5.649,1.199 5.245,-1.814 -0.255,-1.902 -2.428,-3.043 -4.117,-2.162 m -8.948,2.836 c -0.082,0.561 -0.053,0.593 0.497,0.537 0.95,-0.095 0.868,-1.121 -0.09,-1.13 -0.208,-0.002 -0.35,0.205 -0.407,0.593 m 2.562,1.804 c -2.402,1.617 -1.289,5.219 1.612,5.217 2.174,-0.002 3.476,-2.266 2.442,-4.246 -0.687,-1.313 -2.795,-1.818 -4.054,-0.971 m -5.886,4.438 c -2.585,1.403 -1.607,5.364 1.313,5.32 1.066,-0.016 1.967,-0.485 2.349,-1.223 0.393,-0.761 2.118,-0.893 2.305,-0.177 0.17,0.65 0.996,0.43 1.078,-0.287 0.063,-0.556 0.052,-0.563 -0.711,-0.441 -1.023,0.164 -2.186,-0.3 -2.186,-0.872 0,-1.917 -2.409,-3.265 -4.148,-2.32 m -5.972,5.082 c -1.368,0.834 -1.717,2.875 -0.699,4.085 1.207,1.434 3.826,1.23 4.563,-0.355 l 0.216,-0.464 6.291,0.118 c 3.461,0.066 6.204,0.082 6.097,0.037 -0.107,-0.045 -1.074,-0.173 -2.148,-0.284 -3.004,-0.311 -8.721,-0.974 -9.376,-1.088 -0.448,-0.077 -0.694,-0.305 -1.046,-0.968 -0.757,-1.428 -2.525,-1.918 -3.898,-1.081 m 17.61,2.568 c -0.952,0.46 -0.597,1.974 0.487,2.078 0.831,0.081 1.203,-0.244 1.203,-1.051 0,-0.987 -0.786,-1.465 -1.69,-1.027 m -22.466,3.21 c -1.365,0.674 -1.696,2.974 -0.586,4.084 1.204,1.204 2.68,1.145 3.916,-0.155 l 0.766,-0.805 11.153,0.018 c 6.134,0.01 10.933,-0.016 10.665,-0.057 -0.269,-0.041 -2.73,-0.206 -5.469,-0.365 -18.04,-1.051 -16.492,-0.89 -16.906,-1.762 -0.548,-1.154 -2.222,-1.608 -3.539,-0.958 m 27.623,1.849 c -1.614,0.94 -0.322,3.61 1.382,2.857 0.718,-0.317 0.999,-0.718 0.99,-1.408 -0.006,-0.526 -0.323,-1.597 -0.357,-1.206 -0.007,0.088 -0.151,0.022 -0.32,-0.147 -0.347,-0.347 -1.183,-0.394 -1.695,-0.096 m -30.42,5.005 c -1.689,0.618 -2.006,3.287 -0.512,4.311 1.122,0.768 2.357,0.617 3.341,-0.41 l 0.809,-0.845 11.218,-0.254 c 6.17,-0.14 12.932,-0.317 15.027,-0.393 l 3.808,-0.139 -4.345,-0.056 c -2.391,-0.031 -4.412,-0.073 -4.493,-0.092 -0.08,-0.019 -3.794,-0.107 -8.252,-0.195 -4.458,-0.088 -8.325,-0.186 -8.593,-0.217 -0.269,-0.032 -1.414,-0.065 -2.546,-0.074 l -2.058,-0.016 -0.346,-0.587 c -0.566,-0.958 -1.968,-1.431 -3.058,-1.033 m 34.63,0.888 c -1.681,1.851 0.606,4.582 2.534,3.026 0.887,-0.716 0.902,-3.075 0.019,-3.075 -0.148,0 -0.269,-0.088 -0.269,-0.195 0,-0.418 -1.865,-0.218 -2.284,0.244 m 3.224,6.777 -0.802,0.803 -12.227,0.482 c -21.431,0.847 -21.272,0.812 -3.837,0.844 l 16.007,0.029 0.723,0.706 c 1.561,1.524 3.937,0.759 3.937,-1.268 0,-2.232 -2.229,-3.168 -3.801,-1.596 m -37.974,0.201 c -0.677,0.274 -1.248,1.161 -1.245,1.935 0.004,0.919 0.188,1.585 0.438,1.585 0.11,0 0.301,0.137 0.424,0.306 0.388,0.53 1.745,0.584 2.528,0.1 2.333,-1.441 0.411,-4.958 -2.145,-3.926 m 39.244,6.635 c -0.343,0.209 -0.728,0.582 -0.857,0.829 -0.129,0.248 -0.27,0.491 -0.314,0.54 -0.078,0.089 -5.902,0.3 -22.426,0.815 -10.775,0.336 -9.55,0.497 4.199,0.555 17.702,0.073 18.148,0.088 18.52,0.629 1.189,1.728 3.566,1.641 4.362,-0.158 1.017,-2.298 -1.371,-4.498 -3.484,-3.21 m -36.683,0.822 c -1.802,0.991 -1.19,3.68 0.838,3.68 1.45,0 2.274,-1.196 1.805,-2.618 -0.336,-1.018 -1.715,-1.572 -2.643,-1.062 m 33.931,6.22 c -0.352,0.214 -0.72,0.601 -0.818,0.859 -0.26,0.685 0.162,0.646 -8.699,0.802 -4.511,0.08 -10.268,0.202 -12.793,0.272 l -4.589,0.127 3.808,0.141 c 2.095,0.077 7.105,0.232 11.133,0.342 10.789,0.297 10.931,0.309 11.152,0.944 0.864,2.478 4.884,1.386 4.85,-1.317 -0.011,-0.89 -0.313,-2.314 -0.363,-1.714 -0.008,0.09 -0.284,-0.064 -0.615,-0.342 -0.763,-0.642 -2.118,-0.692 -3.066,-0.114 m -29.999,0.829 c -1.202,1.09 -0.594,2.686 1.024,2.686 0.674,0 0.829,-0.089 1.196,-0.683 0.998,-1.615 -0.83,-3.263 -2.22,-2.003 m 25.375,4.771 c -0.636,0.344 -1.263,1.014 -1.273,1.36 -0.011,0.37 -0.684,0.437 -5.67,0.564 -10.204,0.258 -11.402,0.237 -11.626,-0.201 -0.234,-0.458 -1.341,-0.635 -1.766,-0.282 -0.328,0.272 -0.366,1.027 -0.078,1.565 0.345,0.644 1.946,0.328 1.946,-0.386 0,-0.251 2.053,-0.203 11.612,0.273 l 5.069,0.253 0.693,0.778 c 1.56,1.752 3.632,1.746 4.704,-0.013 1.429,-2.343 -1.216,-5.208 -3.611,-3.911 m -6.461,5.456 c -0.488,0.525 -1.048,1.144 -1.244,1.375 -0.336,0.395 -5.039,0.93 -5.781,0.658 -0.733,-0.269 -1.366,-0.088 -1.315,0.375 0.072,0.64 0.097,0.65 0.748,0.301 0.455,-0.244 1.143,-0.294 3.477,-0.253 3.094,0.055 3.129,0.065 3.752,1.12 0.909,1.538 3.479,1.545 4.57,0.013 1.375,-1.931 0.244,-4.176 -2.231,-4.432 l -1.088,-0.112 -0.888,0.955"
       stroke="none"
       fill="#000000"
       fill-rule="evenodd"
       sodipodi:nodetypes="ccccccccccccccccsccscsccscccccccccccccccccccsccccccsccccccccscccsccsccccscccsccsccccccscccccccccccccccscsccccsccccccscsccssccccccccccccccsscccccsccccccscccccccccccccsccccccccccccccccccsccccccsccccccssccccccccccccccscccccccccccscccscccccccccccsccccccsccccccsccscccccccccccsccccccccccscccccccsscccccccscccsccccccccccccscccccccccccccccsccccccccscccccccccscccccc"
       style="fill:url(#radialGradient1317);fill-opacity:1;opacity:1" />
  </g>
</svg>
